# xmcd
#
# Track frame offsets:
# 150
# 17036
# 31440
# 42476
# 57488
# 69798
# 84098
# 95483
# 111707
# 120285
# 133289
# 146776
# 157940
# 170273
# 181168
# 193469
# 210632
#
# Disc length: 2963 seconds
#
#
# Revision: 0
# Processed by: cddbd v1.5.2PL0 Copyright (c) Steve Scherf et al.
# Submitted via: FreeRIP 2.96 
#
DISCID=f10b9111
DTITLE=Kate Smith - The Very Best Of Kate Smith [CD2]
DYEAR=1959
DGENRE=Easy Listening
TTITLE0=A Few Words From Kate - (Back Home Again In) Indiana
TTITLE1=Beautiful Ohio
TTITLE2=Oklahoma!
TTITLE3=On Top Of Old Smokey
TTITLE4=New York Melody: In Old New York
TTITLE5=Carolina Moon
TTITLE6=Texas Medley: The Yellow Rose Of Texas
TTITLE7=Moonlight In Vermont
TTITLE8=He's Got The Whole World In His Hands
TTITLE9=Nobody Knows The Trouble I've Seen
TTITLE10=Greensleeves
TTITLE11=Sixteen Tons
TTITLE12=Sometimes I Feel Like A Motherless Child
TTITLE13=Kisses Sweeter Than Wine
TTITLE14=Stars Fell On Alabama
TTITLE15=Blue Tail Fly
TTITLE16=Down In The Valley
EXTD=
EXTT0=
EXTT1=
EXTT2=
EXTT3=
EXTT4=
EXTT5=
EXTT6=
EXTT7=
EXTT8=
EXTT9=
EXTT10=
EXTT11=
EXTT12=
EXTT13=
EXTT14=
EXTT15=
EXTT16=
PLAYORDER=
